<?xml version="1.0" ?><!DOCTYPE svg  PUBLIC '-//W3C//DTD SVG 1.1//EN'  'http://www.w3.org/Graphics/SVG/1.1/DTD/svg11.dtd'><svg enable-background="new 0 0 32 32" height="32px" version="1.1" viewBox="0 0 32 32" width="32px" xml:space="preserve" xmlns="http://www.w3.org/2000/svg" xmlns:xlink="http://www.w3.org/1999/xlink"><g id="ball"/><g id="wistle"/><g id="pitch"/><g id="goal"/><g id="socks"/><g id="shoe"><g><path d="M30,29h-8c-0.553,0-1,0.448-1,1s0.447,1,1,1h8c0.553,0,1-0.448,1-1S30.553,29,30,29z"/><path d="M19,29h-2c-0.553,0-1,0.448-1,1s0.447,1,1,1h2c0.553,0,1-0.448,1-1S19.553,29,19,29z"/><path d="M14,29H2c-0.553,0-1,0.448-1,1s0.447,1,1,1h12c0.553,0,1-0.448,1-1S14.553,29,14,29z"/><path d="M1.475,24.851C1.635,24.95,1.817,25,2,25c0.153,0,0.306-0.035,0.447-0.105l3.105-1.553l0.553,1.105    C6.281,24.798,6.634,25,7.001,25c0.15,0,0.303-0.034,0.446-0.105c0.494-0.247,0.694-0.848,0.447-1.342l-0.553-1.105l2.211-1.105    l0.553,1.105C10.281,22.798,10.634,23,11.001,23c0.15,0,0.303-0.034,0.446-0.105c0.494-0.247,0.694-0.848,0.447-1.342    l-0.553-1.105l2.211-1.105l0.553,1.105C14.281,20.798,14.634,21,15.001,21c0.15,0,0.303-0.034,0.446-0.105    c0.494-0.247,0.694-0.848,0.447-1.342l-0.553-1.105l2.211-1.105l0.553,1.105C18.281,18.798,18.634,19,19.001,19    c0.15,0,0.303-0.034,0.446-0.105c0.494-0.247,0.694-0.848,0.447-1.342l-0.553-1.105l4.211-2.105l0.553,1.105    C24.281,15.798,24.634,16,25.001,16c0.15,0,0.303-0.034,0.446-0.105c0.494-0.247,0.694-0.848,0.447-1.342l-0.553-1.105    l2.211-1.105l0.553,1.105C28.281,13.798,28.634,14,29.001,14c0.15,0,0.303-0.034,0.446-0.105c0.494-0.247,0.694-0.848,0.447-1.342    l-0.553-1.105l1.105-0.553C30.786,10.725,31,10.379,31,10c0-3.593-0.771-6.186-2.293-7.707C27.45,1.037,26.145,1,26,1    c-0.496,0-0.917,0.363-0.989,0.854c-0.432,2.919-2.041,3.257-3.215,3.257c-1.989,0-4.119-1.169-4.141-1.181    c-0.47-0.261-1.064-0.104-1.343,0.357l-0.364,0.604l-0.034-1.886c-0.007-0.35-0.196-0.671-0.499-0.847    c-0.305-0.176-0.677-0.18-0.983-0.01c-4.396,2.419-4.679,6.781-4.606,8.489C2.163,15.124,1,20.907,1,24    C1,24.347,1.18,24.668,1.475,24.851z M11.359,12.064c0.364-0.202,0.564-0.611,0.505-1.023c-0.025-0.17-0.499-3.664,2.085-6.096    L14.013,8.4c0.009,0.445,0.311,0.832,0.741,0.947c0.431,0.113,0.885-0.068,1.115-0.45l1.686-2.796    c0.965,0.423,2.598,1.01,4.241,1.01c1.508,0,4.019-0.529,4.954-3.833c0.169,0.102,0.354,0.24,0.543,0.429    c0.735,0.735,1.604,2.313,1.698,5.679L3.135,22.314C3.59,19.45,5.393,15.372,11.359,12.064z"/><path d="M30,19h-8c-0.553,0-1,0.448-1,1s0.447,1,1,1h8c0.553,0,1-0.448,1-1S30.553,19,30,19z"/><path d="M30,25H16c-0.553,0-1,0.448-1,1s0.447,1,1,1h14c0.553,0,1-0.448,1-1S30.553,25,30,25z"/><path d="M30,22H18c-0.553,0-1,0.448-1,1s0.447,1,1,1h12c0.553,0,1-0.448,1-1S30.553,22,30,22z"/></g></g><g id="jersey"/><g id="bottle"/><g id="shorts"/><g id="corner"/><g id="winner"/><g id="trophy"/><g id="substitution"/><g id="medal_award"/><g id="strategy"/><g id="card"/><g id="gloves"/><g id="stadium"/><g id="keeper"/><g id="time"/><g id="horns"/><g id="flag"/><g id="referee"/><g id="player"/><g id="injury"/><g id="supporter"/><g id="coach"/><g id="cone"/><g id="captain"/><g id="match"/><g id="score"/><g id="celender"/><g id="grass"/><g id="game"/><g id="subsitutions"/><g id="bench"/></svg>